<svg xmlns="http://www.w3.org/2000/svg" viewBox="0 0 31 31">
  <!-- Light frame -->
  <rect x="3" y="3" width="24" height="4" fill="#f3f4f6"/>
  <rect x="3" y="7" width="5" height="4" fill="#f3f4f6"/>
  <rect x="3" y="11" width="24" height="4" fill="#f3f4f6"/>
  <rect x="3" y="15" width="9" height="4" fill="#f3f4f6"/>
  <rect x="3" y="19" width="24" height="4" fill="#f3f4f6"/>
  <rect x="3" y="23" width="13" height="4" fill="#f3f4f6"/>

  <!-- Amber/Orange shapes -->
  <polygon points="8,7 11,7 15,11 8,11" fill="#d97706"/>
  <polygon points="23,7 27,7 27,10 26,11 19,11" fill="#d97706"/>
  <polygon points="12,15 23,15 21,17 23,19 12,19" fill="#d97706"/>
  <polygon points="20,23 27,23 27,27 24,27" fill="#d97706"/>
</svg>
